#!OML:ASF G:\JayActor3\Patient Classification 1\Patient 1\Session 5\male.ASF
:FULLY-SPECIFIED
:DEGREES
600
root -4.32087 15.8015 -5.03096 202.141 91.0687 186.863
lowerback 35.7494 -1.08954 0.613911
upperback 9.6698 -0.267417 -2.73259
thorax -7.19005 0.394197 -3.17457
lowerneck 0.860663 -0.884275 2.3747
upperneck -22.4946 0.21506 2.94988
head -7.0129 -0.0129458 0.502216
rclavicle 3.97569e-016 7.55382e-015
rhumerus -28.9595 3.85758 -90.1375
rradius 44.3303
rwrist -2.09261
rhand -21.4584 -10.4845
rfingers 7.12502
rthumb 4.9317 -40.4071
lclavicle 3.97569e-016 7.55382e-015
lhumerus -31.4805 1.77901 81.5839
lradius 36.1631
lwrist 24.5225
lhand -20.4713 15.0977
lfingers 7.12502
lthumb 5.88485 44.996
rfemur -57.5527 -5.89391 19.0894
rtibia 95.9678
rfoot 10.7912 0.2325
rtoes -11.0304
lfemur -64.8118 10.5588 -29.8709
ltibia 74.6419
lfoot 8.85277 -3.68569
ltoes -34.049
601
root -4.2049 15.8007 -5.03679 204.726 91.1112 189.446
lowerback 35.7695 -1.126 0.5735
upperback 9.70156 -0.321393 -2.73082
thorax -7.16463 0.370969 -3.13132
lowerneck 0.87688 -0.85036 2.37789
upperneck -22.5101 0.25154 2.89196
head -7.0208 0.00857292 0.480687
rclavicle 3.18055e-015 1.37161e-014
rhumerus -28.8848 3.88658 -90.2045
rradius 44.3387
rwrist -2.19952
rhand -21.459 -10.4774
rfingers 7.12502
rthumb 4.93112 -40.4
lclavicle 3.18055e-015 1.37161e-014
lhumerus -31.4067 1.76866 81.562
lradius 36.2378
lwrist 24.5918
lhand -20.3941 15.0612
lfingers 7.12502
lthumb 5.95937 44.9574
rfemur -58.9071 -5.90279 19.2449
rtibia 96.2429
rfoot 9.06554 0.278216
rtoes -11.5851
lfemur -64.5525 10.7324 -29.9823
ltibia 74.9699
lfoot 8.7374 -3.47702
ltoes -33.9953
602
root -4.08892 15.8009 -5.0423 207.981 91.163 192.71
lowerback 35.802 -1.16134 0.523721
upperback 9.73029 -0.377791 -2.73644
thorax -7.14705 0.346767 -3.09024
lowerneck 0.891981 -0.820788 2.3805
upperneck -22.524 0.283377 2.84207
head -7.02801 0.0272495 0.462141
rclavicle 1.39149e-014 1.78906e-015
rhumerus -28.8308 3.90969 -90.2724
rradius 44.3488
rwrist -2.33009
rhand -21.4392 -10.5013
rfingers 7.12502
rthumb 4.9503 -40.4235
lclavicle 1.39149e-014 1.78906e-015
lhumerus -31.3333 1.7429 81.543
lradius 36.3018
lwrist 24.6566
lhand -20.3533 15.0628
lfingers 7.12502
lthumb 5.99874 44.9579
rfemur -60.2382 -5.86745 19.3683
rtibia 96.3658
rfoot 7.40174 0.0846951
rtoes -12.1456
lfemur -64.2604 10.9142 -30.122
ltibia 75.2635
lfoot 8.62808 -3.22956
ltoes -33.9257
603
root -3.97293 15.8026 -5.04735 211.748 91.2212 196.498
lowerback 35.8541 -1.19827 0.469484
upperback 9.75426 -0.438316 -2.75029
thorax -7.14185 0.32084 -3.0542
lowerneck 0.910028 -0.795062 2.3833
upperneck -22.5351 0.311393 2.80086
head -7.03479 0.0432654 0.446617
rclavicle -3.1408e-014 -2.72335e-014
rhumerus -28.8002 3.92838 -90.3424
rradius 44.3501
rwrist -2.46215
rhand -21.4149 -10.534
rfingers 7.12502
rthumb 4.9737 -40.4556
lclavicle -3.1408e-014 -2.72335e-014
lhumerus -31.2646 1.69962 81.5244
lradius 36.3532
lwrist 24.7014
lhand -20.3397 15.0851
lfingers 7.12502
lthumb 6.0119 44.9798
rfemur -61.5214 -5.79385 19.4594
rtibia 96.3224
rfoot 5.7959 -0.332133
rtoes -12.7842
lfemur -63.925 11.1006 -30.2836
ltibia 75.5159
lfoot 8.52607 -2.95081
ltoes -33.8409
604
root -3.8568 15.8059 -5.05197 215.557 91.2852 200.345
lowerback 35.9192 -1.23428 0.412564
upperback 9.7794 -0.498048 -2.76566
thorax -7.13982 0.295651 -3.0187
lowerneck 0.926417 -0.774003 2.38229
upperneck -22.5443 0.333904 2.76722
head -7.04064 0.056324 0.434533
rclavicle 1.82882e-014 3.43897e-014
rhumerus -28.7833 3.941 -90.4047
rradius 44.3412
rwrist -2.59223
rhand -21.3756 -10.596
rfingers 7.12502
rthumb 5.01164 -40.5167
lclavicle 1.82882e-014 3.43897e-014
lhumerus -31.1912 1.64845 81.5131
lradius 36.3891
lwrist 24.7121
lhand -20.3371 15.1076
lfingers 7.12502
lthumb 6.01438 45.0022
rfemur -62.7417 -5.68574 19.5241
rtibia 96.1023
rfoot 4.26941 -0.936924
rtoes -13.5072
lfemur -63.5445 11.2954 -30.454
ltibia 75.7289
lfoot 8.42502 -2.65194
ltoes -33.721
